# Blender 5.0.1
# www.blender.org
mtllib Coner.mtl
o object_static_wall_basic_Cube.006
v -5.325751 1.467731 5.790466
v -10.010448 1.467731 5.790466
v -5.205752 1.393209 5.670468
v -6.282703 1.717731 5.790466
v -5.325751 5.573371 5.790465
v -5.325751 1.467732 9.741138
v -5.325751 1.717731 6.418787
v -5.325751 1.717732 9.118784
v -5.205741 1.767731 6.468788
v -5.325751 5.323372 6.418787
v -5.325751 5.323372 9.118784
v -5.205741 5.273372 6.468788
v -5.205741 5.273372 9.068785
v -5.205741 1.767732 9.068785
v -5.325751 5.573372 9.741138
v -5.075753 5.573372 9.741138
v -5.075751 5.573371 5.540466
v -5.075753 5.973372 9.741138
v -5.325751 5.973372 9.741138
v -5.075751 5.973372 5.540466
v -5.325751 5.973372 5.790465
v -10.010448 5.973372 5.540465
v -10.010448 5.973372 5.790465
v -10.010448 5.573371 5.540465
v -10.010448 5.573371 5.790465
v -8.982699 5.323372 5.790465
v -6.282703 5.323372 5.790465
v -8.982699 1.717731 5.790466
v -8.932700 5.273372 5.670455
v -8.932700 1.767731 5.670455
v -6.332703 5.273372 5.670455
v -6.332703 1.767731 5.670455
v -10.010448 15.770170 5.790465
v -5.325751 15.770170 5.790465
v -5.325751 15.770169 9.741138
v -5.205754 1.393209 9.741138
v -5.205754 1.140918 9.741138
v -5.205752 1.140917 5.670468
v -5.085755 1.092391 9.741138
v -5.085753 1.092390 5.550469
v -5.085755 0.573375 9.741138
v -5.085753 0.573374 5.550469
v -10.010448 0.573374 5.550468
v -10.010448 1.092390 5.550468
v -10.010448 1.140917 5.670467
v -10.010448 1.393209 5.670467
vn -0.0000 -0.0000 -1.0000
vn -0.0000 0.8495 -0.5276
vn 0.5276 0.8495 -0.0000
vn 1.0000 -0.0000 -0.0000
vn 0.3846 -0.9231 -0.0000
vn 0.3846 -0.0000 -0.9231
vn 0.3846 0.9231 -0.0000
vn 0.3846 -0.0000 0.9231
vn -0.0000 -1.0000 -0.0000
vn -0.0000 1.0000 -0.0000
vn -0.0000 0.9231 -0.3846
vn -0.9231 -0.0000 -0.3846
vn 0.9231 -0.0000 -0.3846
vn -0.0000 -0.9231 -0.3846
vn 0.3749 0.9271 -0.0000
vn -0.0000 0.9271 -0.3749
vt 0.245268 0.555243
vt 0.268775 0.549525
vt 0.330529 0.549525
vt 0.352416 0.555243
vt 0.744914 0.646951
vt 0.852063 0.646950
vt 0.854808 0.650180
vt 0.744914 0.650182
vt 0.854500 0.504322
vt 0.764139 0.504322
vt 0.764139 0.501091
vt 0.857245 0.501091
vt 0.330529 0.467057
vt 0.352416 0.461339
vt 0.335628 0.597667
vt 0.335628 0.691570
vt 0.321257 0.685853
vt 0.321257 0.603385
vt 0.259503 0.603385
vt 0.245268 0.597667
vt 0.087873 0.869094
vt 0.149627 0.869094
vt 0.148483 0.872067
vt 0.089016 0.872067
vt 0.842698 0.704378
vt 0.842698 0.786845
vt 0.839725 0.785702
vt 0.839725 0.705522
vt 0.830368 0.177949
vt 0.768614 0.177949
vt 0.769758 0.174976
vt 0.829225 0.174976
vt 0.245268 0.691570
vt 0.259503 0.685852
vt 0.783563 0.007066
vt 0.783563 0.087246
vt 0.724096 0.087246
vt 0.724096 0.007066
vt 0.844337 0.327737
vt 0.844337 0.245268
vt 0.847311 0.246412
vt 0.847310 0.326593
vt 0.134064 0.814052
vt 0.224423 0.814052
vt 0.230141 0.819770
vt 0.134064 0.819770
vt 0.759008 0.780662
vt 0.759008 0.789811
vt 0.662931 0.789811
vt 0.662931 0.780662
vt 0.835170 0.127762
vt 0.744810 0.127762
vt 0.744810 0.122044
vt 0.840888 0.122044
vt 0.662931 0.803942
vt 0.770079 0.803942
vt 0.775797 0.809660
vt 0.662931 0.809660
vt 0.656839 0.578523
vt 0.656839 0.569374
vt 0.769704 0.569374
vt 0.769704 0.578523
vt 0.114214 0.819770
vt 0.007066 0.819770
vt 0.007066 0.814052
vt 0.119932 0.814052
vt 0.268775 0.467057
vt 0.245268 0.461339
vt 0.786955 0.823792
vt 0.848709 0.823792
vt 0.847565 0.826765
vt 0.788098 0.826765
vt 0.808488 0.704378
vt 0.808488 0.786845
vt 0.805515 0.785702
vt 0.805515 0.705522
vt 0.101378 0.646142
vt 0.181558 0.646142
vt 0.181558 0.705609
vt 0.101378 0.705609
vt 0.827548 0.435773
vt 0.827548 0.353304
vt 0.830522 0.354448
vt 0.830522 0.434629
vt 0.839020 0.223345
vt 0.777266 0.223345
vt 0.778410 0.220372
vt 0.837877 0.220372
vt 0.424728 0.007066
vt 0.531876 0.007066
vt 0.531876 0.231137
vt 0.424728 0.231137
vt 0.546007 0.007066
vt 0.636367 0.007066
vt 0.636367 0.231137
vt 0.546007 0.231137
vt 0.854807 0.629440
vt 0.761703 0.629440
vt 0.761703 0.623669
vt 0.854807 0.623669
vt 0.857059 0.690247
vt 0.763956 0.690247
vt 0.763956 0.687286
vt 0.859803 0.687286
vt 0.753290 0.745864
vt 0.657441 0.745864
vt 0.657441 0.733993
vt 0.753290 0.733993
vt 0.650498 0.203267
vt 0.763135 0.203267
vt 0.763135 0.215137
vt 0.650498 0.215137
vt 0.744810 0.141894
vt 0.854702 0.141894
vt 0.857447 0.144855
vt 0.744810 0.144854
vt 0.662931 0.823792
vt 0.772823 0.823792
vt 0.772823 0.829562
vt 0.662931 0.829562
s 1
usemtl Material.001
f 2/1/1 28/2/1 4/3/1 1/4/1
f 2/5/2 1/6/2 3/7/2 46/8/2
f 1/9/3 6/10/3 36/11/3 3/12/3
f 4/3/1 27/13/1 5/14/1 1/4/1
f 1/15/4 5/16/4 10/17/4 7/18/4
f 1/15/4 7/18/4 8/19/4 6/20/4
f 8/21/5 7/22/5 9/23/5 14/24/5
f 7/25/6 10/26/6 12/27/6 9/28/6
f 10/29/7 11/30/7 13/31/7 12/32/7
f 10/17/4 5/16/4 15/33/4 11/34/4
f 9/35/4 12/36/4 13/37/4 14/38/4
f 11/39/8 8/40/8 14/41/8 13/42/8
f 8/19/4 11/34/4 15/33/4 6/20/4
f 15/43/9 5/44/9 17/45/9 16/46/9
f 17/47/4 20/48/4 18/49/4 16/50/4
f 21/51/10 19/52/10 18/53/10 20/54/10
f 23/55/10 21/56/10 20/57/10 22/58/10
f 24/59/1 22/60/1 20/61/1 17/62/1
f 5/63/9 25/64/9 24/65/9 17/66/9
f 26/67/1 25/68/1 5/14/1 27/13/1
f 2/1/1 25/68/1 26/67/1 28/2/1
f 26/69/11 27/70/11 31/71/11 29/72/11
f 28/73/12 26/74/12 29/75/12 30/76/12
f 30/77/1 29/78/1 31/79/1 32/80/1
f 27/81/13 4/82/13 32/83/13 31/84/13
f 4/85/14 28/86/14 30/87/14 32/88/14
f 21/89/1 23/90/1 33/91/1 34/92/1
f 19/93/4 21/94/4 34/95/4 35/96/4
f 3/97/4 36/98/4 37/99/4 38/100/4
f 38/101/15 37/102/15 39/103/15 40/104/15
f 40/105/4 39/106/4 41/107/4 42/108/4
f 44/109/1 40/110/1 42/111/1 43/112/1
f 45/113/16 38/114/16 40/115/16 44/116/16
f 46/117/1 3/118/1 38/119/1 45/120/1
o object_static_wall_basic_Cube.007
v -4.602115 16.579691 5.066832
v -4.730014 16.579691 5.194731
v -4.602117 16.579691 9.741138
v -4.602115 16.595636 5.066832
v -4.602117 16.595636 9.741138
v -4.602115 16.733839 5.066832
v -4.602117 16.733839 9.741138
v -4.730016 16.579691 9.741138
vn -0.0000 -1.0000 -0.0000
vn 1.0000 -0.0000 -0.0000
vt 0.763956 0.670230
vt 0.867943 0.670230
vt 0.870868 0.673155
vt 0.763956 0.673155
vt 0.662931 0.860792
vt 0.769834 0.860792
vt 0.769834 0.861156
vt 0.662931 0.861157
vt 0.769834 0.864317
vt 0.662931 0.864318
s 1
usemtl Material.001
f 54/121/17 48/122/17 47/123/17 49/124/17
f 49/125/18 47/126/18 50/127/18 51/128/18
f 51/128/18 50/127/18 52/129/18 53/130/18
o object_static_wall_basic_Cube.008
v -10.010448 16.579691 5.194728
v -10.010448 16.055889 5.524693
v -4.730014 16.579691 5.194731
v -5.059978 16.055889 5.524694
v -5.176944 16.055889 5.641661
v -5.176944 16.015074 5.641661
v -10.010448 16.055889 5.641659
v -10.010448 16.015074 5.641659
v -10.010448 15.770170 5.641659
v -10.010448 15.770170 5.790465
v -5.176944 15.770170 5.641661
v -5.325751 15.770170 5.790467
vn -0.0000 -0.5330 -0.8461
vn -0.0000 -1.0000 -0.0000
vn -0.0000 -0.0000 -1.0000
vt 0.753283 0.719862
vt 0.640057 0.719823
vt 0.640062 0.705664
vt 0.760835 0.705705
vt 0.855689 0.600380
vt 0.745143 0.600342
vt 0.745144 0.597667
vt 0.858366 0.597706
vt 0.773486 0.760929
vt 0.662931 0.760929
vt 0.662931 0.759996
vt 0.773486 0.759996
vt 0.773486 0.766531
vt 0.662931 0.766531
vt 0.114215 0.854962
vt 0.007066 0.854962
vt 0.007066 0.851559
vt 0.117618 0.851559
s 1
usemtl Material.001
f 58/131/19 56/132/19 55/133/19 57/134/19
f 59/135/20 61/136/20 56/137/20 58/138/20
f 60/139/21 62/140/21 61/141/21 59/142/21
f 65/143/21 63/144/21 62/140/21 60/139/21
f 66/145/20 64/146/20 63/147/20 65/148/20
o object_static_wall_basic_Cube.009
v -10.010448 16.579691 5.066831
v -10.010448 16.579691 5.194728
v -4.602115 16.579691 5.066832
v -10.010448 16.595636 5.066831
v -4.602115 16.595636 5.066832
v -10.010448 16.733839 5.066831
v -4.602115 16.733839 5.066832
v -4.730014 16.579691 5.194731
vn -0.0000 -1.0000 -0.0000
vn -0.0000 -0.0000 -1.0000
vt 0.783705 0.846660
vt 0.662931 0.846619
vt 0.662932 0.843693
vt 0.786631 0.843736
vt 0.130760 0.837427
vt 0.007066 0.837427
vt 0.007066 0.837063
vt 0.130760 0.837063
vt 0.007066 0.833902
vt 0.130760 0.833901
s 1
usemtl Material.001
f 74/149/22 68/150/22 67/151/22 69/152/22
f 69/153/23 67/154/23 70/155/23 71/156/23
f 71/156/23 70/155/23 72/157/23 73/158/23
o object_static_wall_basic_Cube.010
v -4.730014 16.579691 5.194731
v -5.059978 16.055889 5.524694
v -4.730016 16.579691 9.741138
v -5.059979 16.055889 9.741138
v -5.176946 16.055889 9.741138
v -5.176946 16.015074 9.741138
v -5.176944 16.055889 5.641661
v -5.176944 16.015074 5.641661
v -5.176944 15.770170 5.641661
v -5.325751 15.770170 5.790467
v -5.176946 15.770171 9.741138
v -5.325751 15.770171 9.741138
vn 0.8461 -0.5330 -0.0000
vn -0.0000 -1.0000 -0.0000
vn 1.0000 -0.0000 -0.0000
vt 0.650498 0.174976
vt 0.746936 0.174976
vt 0.754483 0.189135
vt 0.650498 0.189135
vt 0.767421 0.521759
vt 0.861183 0.521759
vt 0.863858 0.524435
vt 0.767421 0.524435
vt 0.744810 0.106979
vt 0.838571 0.106979
vt 0.838571 0.107913
vt 0.744810 0.107913
vt 0.744810 0.101378
vt 0.838571 0.101378
vt 0.131750 0.851559
vt 0.222108 0.851559
vt 0.225512 0.854962
vt 0.131750 0.854962
s 1
usemtl Material.001
f 78/159/24 76/160/24 75/161/24 77/162/24
f 79/163/25 81/164/25 76/165/25 78/166/25
f 80/167/26 82/168/26 81/169/26 79/170/26
f 85/171/26 83/172/26 82/168/26 80/167/26
f 86/173/25 84/174/25 83/175/25 85/176/25
